<svg width="25" height="24" viewBox="0 0 25 24" fill="none" xmlns="http://www.w3.org/2000/svg">
<mask id="mask0_92_28" style="mask-type:alpha" maskUnits="userSpaceOnUse" x="0" y="0" width="25" height="24">
<rect x="0.800049" width="24" height="24" fill="#D9D9D9"/>
</mask>
<g mask="url(#mask0_92_28)">
<path d="M12.8 22C11.4167 22 10.1167 21.7375 8.90005 21.2125C7.68338 20.6875 6.62505 19.975 5.72505 19.075C4.82505 18.175 4.11255 17.1167 3.58755 15.9C3.06255 14.6833 2.80005 13.3833 2.80005 12C2.80005 10.6167 3.06255 9.31667 3.58755 8.1C4.11255 6.88333 4.82505 5.825 5.72505 4.925C6.62505 4.025 7.68338 3.3125 8.90005 2.7875C10.1167 2.2625 11.4167 2 12.8 2C14.1834 2 15.4834 2.2625 16.7 2.7875C17.9167 3.3125 18.975 4.025 19.875 4.925C20.775 5.825 21.4875 6.88333 22.0125 8.1C22.5375 9.31667 22.8 10.6167 22.8 12C22.8 13.3833 22.5375 14.6833 22.0125 15.9C21.4875 17.1167 20.775 18.175 19.875 19.075C18.975 19.975 17.9167 20.6875 16.7 21.2125C15.4834 21.7375 14.1834 22 12.8 22ZM12.8 20C13.7 20 14.5667 19.8542 15.4 19.5625C16.2334 19.2708 17 18.85 17.7 18.3L6.50005 7.1C5.95005 7.8 5.52922 8.56667 5.23755 9.4C4.94588 10.2333 4.80005 11.1 4.80005 12C4.80005 14.2333 5.57505 16.125 7.12505 17.675C8.67505 19.225 10.5667 20 12.8 20ZM19.1 16.9C19.65 16.2 20.0709 15.4333 20.3625 14.6C20.6542 13.7667 20.8 12.9 20.8 12C20.8 9.76667 20.025 7.875 18.475 6.325C16.925 4.775 15.0334 4 12.8 4C11.9 4 11.0334 4.14583 10.2 4.4375C9.36672 4.72917 8.60005 5.15 7.90005 5.7L19.1 16.9Z" fill="#845C33"/>
</g>
</svg>
