<svg width="33" height="32" viewBox="0 0 33 32" fill="none" xmlns="http://www.w3.org/2000/svg">
<mask id="mask0_92_558" style="mask-type:alpha" maskUnits="userSpaceOnUse" x="0" y="0" width="33" height="32">
<rect x="0.5" width="32" height="32" fill="#D9D9D9"/>
</mask>
<g mask="url(#mask0_92_558)">
<path d="M27.1 28C24.3222 28 21.5778 27.3944 18.8667 26.1833C16.1556 24.9722 13.6889 23.2556 11.4667 21.0333C9.24444 18.8111 7.52778 16.3444 6.31667 13.6333C5.10556 10.9222 4.5 8.17778 4.5 5.4C4.5 5 4.63333 4.66667 4.9 4.4C5.16667 4.13333 5.5 4 5.9 4H11.3C11.6111 4 11.8889 4.10556 12.1333 4.31667C12.3778 4.52778 12.5222 4.77778 12.5667 5.06667L13.4333 9.73333C13.4778 10.0889 13.4667 10.3889 13.4 10.6333C13.3333 10.8778 13.2111 11.0889 13.0333 11.2667L9.8 14.5333C10.2444 15.3556 10.7722 16.15 11.3833 16.9167C11.9944 17.6833 12.6667 18.4222 13.4 19.1333C14.0889 19.8222 14.8111 20.4611 15.5667 21.05C16.3222 21.6389 17.1222 22.1778 17.9667 22.6667L21.1 19.5333C21.3 19.3333 21.5611 19.1833 21.8833 19.0833C22.2056 18.9833 22.5222 18.9556 22.8333 19L27.4333 19.9333C27.7444 20.0222 28 20.1833 28.2 20.4167C28.4 20.65 28.5 20.9111 28.5 21.2V26.6C28.5 27 28.3667 27.3333 28.1 27.6C27.8333 27.8667 27.5 28 27.1 28ZM8.53333 12L10.7333 9.8L10.1667 6.66667H7.2C7.31111 7.57778 7.46667 8.47778 7.66667 9.36667C7.86667 10.2556 8.15556 11.1333 8.53333 12ZM20.4667 23.9333C21.3333 24.3111 22.2167 24.6111 23.1167 24.8333C24.0167 25.0556 24.9222 25.2 25.8333 25.2667V22.3333L22.7 21.7L20.4667 23.9333Z" fill="#5F6F52"/>
</g>
</svg>
