<svg width="24" height="25" viewBox="0 0 24 25" fill="none" xmlns="http://www.w3.org/2000/svg">
<path d="M21.7487 1C22.1247 1.12129 22.2959 1.39757 22.3713 1.77223C22.711 3.47573 22.9037 5.18732 22.6961 6.92451C22.591 7.80725 22.4064 8.67787 21.9562 9.44741C21.4657 10.2857 20.8053 10.9946 20.0182 11.5768C18.6342 12.5997 17.0843 12.9824 15.3821 12.7789C15.3309 12.7722 15.2784 12.7722 15.2002 12.7682C15.0614 13.1078 14.9145 13.4487 14.7811 13.7951C14.0641 15.6563 13.5398 17.5741 13.2204 19.5404C13.0183 20.7789 12.8929 22.0309 12.7353 23.2762C12.6786 23.7182 12.4105 23.9932 12.0237 23.9999C11.649 24.0053 11.3646 23.7236 11.2838 23.2924C11.0021 21.7856 10.7528 20.2722 10.4199 18.7776C9.67327 15.4272 8.64901 12.1657 7.10589 9.08623C6.13555 7.14957 4.97652 5.34096 3.44283 3.79379C2.90914 3.25606 2.33906 2.75875 1.66926 2.39353C1.38085 2.23584 1.20025 2.01482 1.21912 1.6779C1.23799 1.3531 1.42263 1.14286 1.72586 1.03234C1.73664 1.02695 1.74473 1.01078 1.75416 1H2.114C3.10186 1.49865 3.92531 2.20889 4.68272 3.00134C6.18002 4.56737 7.34039 6.36791 8.31748 8.29243C9.82691 11.2695 10.8525 14.4191 11.6382 17.6536C11.715 17.9703 11.7905 18.2883 11.866 18.6064C12.0156 18.0889 12.1207 17.5768 12.2474 17.0687C12.6423 15.4784 13.1355 13.9191 13.7851 12.411C13.8107 12.3517 13.7999 12.2533 13.7662 12.1967C13.3902 11.5647 13.0695 10.9056 12.8673 10.1981C12.5493 9.08757 12.49 7.97167 12.8983 6.86925C13.3741 5.58489 14.2784 4.7008 15.5196 4.15363C16.3956 3.76818 17.2864 3.41778 18.1544 3.01617C19.1395 2.56064 20.0924 2.04178 20.9455 1.35849C21.1126 1.22507 21.3013 1.1186 21.4792 1C21.5695 1 21.6584 1 21.7487 1ZM15.8687 11.3773C15.8781 11.4002 15.8875 11.4231 15.8983 11.4461C16.3026 11.407 16.7096 11.3827 17.1112 11.3275C18.7635 11.101 20.8916 9.37733 21.1961 7.30726C21.3916 5.98246 21.374 4.66845 21.1867 3.3504C21.1719 3.24528 21.1503 3.1415 21.1341 3.04986C20.4495 3.42317 19.804 3.8167 19.122 4.1388C18.1085 4.61589 17.0654 5.02964 16.0452 5.49325C15.0654 5.93799 14.3916 6.66575 14.1409 7.73313C13.9671 8.47572 14.0749 9.20617 14.3121 9.91911C14.3943 10.1684 14.4994 10.411 14.6086 10.6927C14.6786 10.5741 14.7164 10.5013 14.7622 10.4339C15.3161 9.59027 15.8579 8.73987 16.4307 7.90968C16.6625 7.57275 16.9563 7.27626 17.2366 6.97572C17.4293 6.76952 17.6759 6.70079 17.9549 6.78704C18.2218 6.86925 18.3875 7.0485 18.4509 7.31669C18.5129 7.57949 18.4212 7.80186 18.2447 7.99459C17.5695 8.73043 16.967 9.52019 16.4482 10.3733C16.2474 10.7035 16.0627 11.0417 15.87 11.376L15.8687 11.3773Z" fill="#B1CC81"/>
</svg>
