<svg width="16" height="16" viewBox="0 0 16 16" fill="none" xmlns="http://www.w3.org/2000/svg">
<path d="M8.00186 3.8978C5.73119 3.8978 3.89966 5.72933 3.89966 8C3.89966 10.2707 5.73119 12.1022 8.00186 12.1022C10.2725 12.1022 12.1041 10.2707 12.1041 8C12.1041 5.72933 10.2725 3.8978 8.00186 3.8978ZM8.00186 10.667C6.5345 10.667 5.3349 9.47094 5.3349 8C5.3349 6.52906 6.53093 5.33304 8.00186 5.33304C9.4728 5.33304 10.6688 6.52906 10.6688 8C10.6688 9.47094 9.46923 10.667 8.00186 10.667ZM13.2287 3.73C13.2287 4.26197 12.8003 4.68682 12.2719 4.68682C11.7399 4.68682 11.315 4.2584 11.315 3.73C11.315 3.20161 11.7435 2.77318 12.2719 2.77318C12.8003 2.77318 13.2287 3.20161 13.2287 3.73ZM15.9456 4.7011C15.8849 3.41939 15.5922 2.28406 14.6532 1.34866C13.7178 0.413254 12.5825 0.120495 11.3008 0.0562312C9.97977 -0.0187437 6.02038 -0.0187437 4.6994 0.0562312C3.42125 0.116925 2.28592 0.409684 1.34695 1.34509C0.407975 2.28049 0.118786 3.41582 0.0545222 4.69753C-0.0204527 6.01852 -0.0204527 9.97791 0.0545222 11.2989C0.115216 12.5806 0.407975 13.7159 1.34695 14.6513C2.28592 15.5867 3.41768 15.8795 4.6994 15.9438C6.02038 16.0187 9.97977 16.0187 11.3008 15.9438C12.5825 15.8831 13.7178 15.5903 14.6532 14.6513C15.5886 13.7159 15.8814 12.5806 15.9456 11.2989C16.0206 9.97791 16.0206 6.02209 15.9456 4.7011ZM14.2391 12.7163C13.9606 13.416 13.4215 13.9551 12.7181 14.2372C11.6649 14.6549 9.16576 14.5585 8.00186 14.5585C6.83797 14.5585 4.33523 14.6513 3.28558 14.2372C2.58582 13.9587 2.04671 13.4196 1.76466 12.7163C1.34695 11.6631 1.44334 9.1639 1.44334 8C1.44334 6.8361 1.35052 4.33337 1.76466 3.28372C2.04314 2.58396 2.58225 2.04485 3.28558 1.7628C4.3388 1.34509 6.83797 1.44148 8.00186 1.44148C9.16576 1.44148 11.6685 1.34866 12.7181 1.7628C13.4179 2.04128 13.957 2.58039 14.2391 3.28372C14.6568 4.33694 14.5604 6.8361 14.5604 8C14.5604 9.1639 14.6568 11.6666 14.2391 12.7163Z" fill="#845C33"/>
</svg>
