<svg width="24" height="24" viewBox="0 0 24 24" fill="none" xmlns="http://www.w3.org/2000/svg">
<path d="M21.7487 0.5C22.1247 0.621293 22.2959 0.897573 22.3713 1.27223C22.711 2.97573 22.9037 4.68732 22.6961 6.42451C22.591 7.30725 22.4064 8.17787 21.9562 8.94741C21.4657 9.78568 20.8053 10.4946 20.0182 11.0768C18.6342 12.0997 17.0843 12.4824 15.3821 12.2789C15.3309 12.2722 15.2784 12.2722 15.2002 12.2682C15.0614 12.6078 14.9145 12.9487 14.7811 13.2951C14.0641 15.1563 13.5398 17.0741 13.2204 19.0404C13.0183 20.2789 12.8929 21.5309 12.7353 22.7762C12.6786 23.2182 12.4105 23.4932 12.0237 23.4999C11.649 23.5053 11.3646 23.2236 11.2838 22.7924C11.0021 21.2856 10.7528 19.7722 10.4199 18.2776C9.67327 14.9272 8.64901 11.6657 7.10589 8.58623C6.13555 6.64957 4.97652 4.84096 3.44283 3.29379C2.90914 2.75606 2.33906 2.25875 1.66926 1.89353C1.38085 1.73584 1.20025 1.51482 1.21912 1.1779C1.23799 0.853099 1.42263 0.642857 1.72586 0.532345C1.73664 0.526954 1.74473 0.510782 1.75416 0.5H2.114C3.10186 0.998651 3.92531 1.70889 4.68272 2.50134C6.18002 4.06737 7.34039 5.86791 8.31748 7.79243C9.82691 10.7695 10.8525 13.9191 11.6382 17.1536C11.715 17.4703 11.7905 17.7883 11.866 18.1064C12.0156 17.5889 12.1207 17.0768 12.2474 16.5687C12.6423 14.9784 13.1355 13.4191 13.7851 11.911C13.8107 11.8517 13.7999 11.7533 13.7662 11.6967C13.3902 11.0647 13.0695 10.4056 12.8673 9.69808C12.5493 8.58757 12.49 7.47167 12.8983 6.36925C13.3741 5.08489 14.2784 4.2008 15.5196 3.65363C16.3956 3.26818 17.2864 2.91778 18.1544 2.51617C19.1395 2.06064 20.0924 1.54178 20.9455 0.858489C21.1126 0.725067 21.3013 0.618598 21.4792 0.5C21.5695 0.5 21.6584 0.5 21.7487 0.5ZM15.8687 10.8773C15.8781 10.9002 15.8875 10.9231 15.8983 10.9461C16.3026 10.907 16.7096 10.8827 17.1112 10.8275C18.7635 10.601 20.8916 8.87733 21.1961 6.80726C21.3916 5.48246 21.374 4.16845 21.1867 2.8504C21.1719 2.74528 21.1503 2.6415 21.1341 2.54986C20.4495 2.92317 19.804 3.3167 19.122 3.6388C18.1085 4.11589 17.0654 4.52964 16.0452 4.99325C15.0654 5.43799 14.3916 6.16575 14.1409 7.23313C13.9671 7.97572 14.0749 8.70617 14.3121 9.41911C14.3943 9.66843 14.4994 9.91102 14.6086 10.1927C14.6786 10.0741 14.7164 10.0013 14.7622 9.93393C15.3161 9.09027 15.8579 8.23987 16.4307 7.40968C16.6625 7.07275 16.9563 6.77626 17.2366 6.47572C17.4293 6.26952 17.6759 6.20079 17.9549 6.28704C18.2218 6.36925 18.3875 6.5485 18.4509 6.81669C18.5129 7.07949 18.4212 7.30186 18.2447 7.49459C17.5695 8.23043 16.967 9.02019 16.4482 9.87328C16.2474 10.2035 16.0627 10.5417 15.87 10.876L15.8687 10.8773Z" fill="#5F6F52"/>
</svg>
