<svg width="16" height="16" viewBox="0 0 16 16" fill="none" xmlns="http://www.w3.org/2000/svg">
<path d="M3.58126 16H0.264047V5.31762H3.58126V16ZM1.92087 3.86044C0.860132 3.86044 -0.000244141 2.98185 -0.000244141 1.92111C-0.000244133 1.4116 0.202158 0.92296 0.562437 0.562681C0.922716 0.202403 1.41136 0 1.92087 0C2.43038 0 2.91902 0.202403 3.2793 0.562681C3.63958 0.92296 3.84198 1.4116 3.84198 1.92111C3.84198 2.98185 2.98125 3.86044 1.92087 3.86044ZM15.9965 16H12.6865V10.7999C12.6865 9.56057 12.6615 7.97125 10.9618 7.97125C9.2371 7.97125 8.97281 9.31771 8.97281 10.7106V16H5.65917V5.31762H8.84067V6.77479H8.8871C9.32996 5.93549 10.4118 5.04976 12.0257 5.04976C15.383 5.04976 16.0001 7.26052 16.0001 10.132V16H15.9965Z" fill="#845C33"/>
</svg>
