<svg width="33" height="32" viewBox="0 0 33 32" fill="none" xmlns="http://www.w3.org/2000/svg">
<mask id="mask0_92_563" style="mask-type:alpha" maskUnits="userSpaceOnUse" x="0" y="0" width="33" height="32">
<rect x="0.5" width="32" height="32" fill="#D9D9D9"/>
</mask>
<g mask="url(#mask0_92_563)">
<path d="M5.83341 26.6667C5.10008 26.6667 4.4723 26.4056 3.95008 25.8834C3.42786 25.3612 3.16675 24.7334 3.16675 24V8.00004C3.16675 7.26671 3.42786 6.63893 3.95008 6.11671C4.4723 5.59449 5.10008 5.33337 5.83341 5.33337H27.1667C27.9001 5.33337 28.5279 5.59449 29.0501 6.11671C29.5723 6.63893 29.8334 7.26671 29.8334 8.00004V24C29.8334 24.7334 29.5723 25.3612 29.0501 25.8834C28.5279 26.4056 27.9001 26.6667 27.1667 26.6667H5.83341ZM16.5001 17.3334L5.83341 10.6667V24H27.1667V10.6667L16.5001 17.3334ZM16.5001 14.6667L27.1667 8.00004H5.83341L16.5001 14.6667ZM5.83341 10.6667V8.00004V24V10.6667Z" fill="#5F6F52"/>
</g>
</svg>
