<svg width="24" height="24" viewBox="0 0 24 24" fill="none" xmlns="http://www.w3.org/2000/svg">
<path d="M14.223 18.3495C13.9471 18.4135 13.6725 18.4375 13.4072 18.4602C13.2952 18.4708 13.1819 18.4802 13.0712 18.4935L12.6847 18.5388L12.606 18.1576C12.4074 17.1924 12.7446 16.1086 13.5325 15.1848C13.5751 15.1341 13.6205 15.0862 13.6658 15.0368L11.4516 12.8226C11.4516 12.8226 11.4516 12.8293 11.4516 12.8333L11.4409 13.1892L11.0876 13.2399C10.9397 13.2612 10.7917 13.2718 10.641 13.2718C9.76655 13.2718 8.8694 12.9172 8.12021 12.2627C7.07908 11.3536 6.46187 10.0111 6.4712 8.67141L6.4752 8.16351L6.86712 8.23683L5.68602 7.05573C5.5847 7.06772 5.48206 7.10105 5.40474 7.17304C5.2581 7.30901 5.23411 7.54096 5.23944 7.7116C5.2861 9.03534 5.57937 10.2684 6.11127 11.3762C6.14459 11.4469 6.16859 11.5149 6.18992 11.5748C6.19792 11.5975 6.20592 11.6202 6.21391 11.6428L6.39388 12.1214L5.88998 12.2094C5.33409 12.308 5.21811 12.448 5.2421 12.9999C5.29543 14.249 5.56871 15.4141 6.05528 16.4606C6.80047 18.0656 7.92291 19.0254 9.48528 19.396C9.81988 19.4746 10.1705 19.5133 10.5424 19.5533C10.7224 19.5733 10.9037 19.5919 11.0876 19.6173L11.4556 19.6666V20.0385C11.4556 20.2438 11.4556 20.4504 11.4542 20.6584C11.4529 21.1343 11.4502 21.6262 11.4582 22.1101C11.4636 22.4527 11.6622 22.6593 11.9888 22.6633C11.9915 22.6633 11.9955 22.6633 11.9981 22.6633C12.3287 22.6633 12.5327 22.4554 12.5433 22.1035C12.5487 21.9262 12.5473 21.7489 12.546 21.5609C12.546 21.4769 12.546 21.3929 12.546 21.3089V19.552H13.1272C13.2125 19.552 13.2845 19.5533 13.3565 19.552C14.7696 19.508 15.8947 19.048 16.7798 18.1509L15.9853 17.3564C15.4708 17.843 14.8656 18.1989 14.2217 18.3469L14.223 18.3495ZM11.4502 18.0496L11.4396 18.4495L11.0396 18.4628C10.9757 18.4655 10.9117 18.4655 10.849 18.4655C9.18933 18.4655 7.96024 17.7363 7.19106 16.2966C6.81513 15.5914 6.56985 14.8222 6.44054 13.9437L6.35655 13.3705L6.92844 13.4638C6.98976 13.4731 7.04709 13.4825 7.10307 13.4905C7.23105 13.5091 7.35103 13.5265 7.47767 13.5558C8.58145 13.8117 9.40529 14.1877 10.0705 14.7356C11.037 15.5327 11.4889 16.6179 11.4502 18.0509V18.0496Z" fill="#845C33"/>
<path d="M14.1549 9.36594C14.9107 8.81805 15.9678 8.42346 17.1316 8.25683L17.7848 8.16351L17.5982 8.79672C17.5462 8.97402 17.4982 9.14732 17.4516 9.31928C17.3449 9.70987 17.2449 10.0778 17.1023 10.4471C16.5517 11.8775 15.6852 12.7453 14.4628 13.0932L15.2507 13.8811C15.8572 13.6038 16.5011 13.4638 17.121 13.4905L17.5262 13.5091V13.9144C17.5289 14.5396 17.3796 15.1688 17.121 15.75L17.9141 16.5432C18.45 15.4727 18.722 14.2157 18.758 12.688C18.758 12.6306 18.7633 12.4547 18.478 12.308C18.4194 12.2787 18.3354 12.256 18.2381 12.2307C18.1781 12.2147 18.1181 12.1987 18.0568 12.1801L17.6089 12.0414L17.8195 11.5402C17.8435 11.4829 17.8648 11.4282 17.8901 11.3762C18.4074 10.2978 18.6993 9.09666 18.758 7.80358C18.7673 7.59295 18.7473 7.31168 18.5993 7.17304C18.4567 7.03973 18.1914 7.03973 17.9928 7.06239L17.8301 7.08105C17.125 7.16237 16.8623 7.1917 16.1598 7.29968C16.0838 7.31168 16.0038 7.32767 15.9052 7.35167C15.124 7.5463 15.0214 7.46231 14.9134 7.37433L14.7494 7.24102L14.7561 7.02907C14.8267 5.10944 14.0962 3.41111 12.3872 1.52214C12.2792 1.40616 12.1419 1.33951 12.0006 1.33684C11.874 1.33285 11.75 1.3875 11.654 1.48881C10.3516 2.85655 9.58776 4.26827 9.31848 5.80264C9.26649 6.09591 9.25183 6.40119 9.23583 6.6958C9.22916 6.83177 9.2225 6.96241 9.21183 7.08505L9.17584 7.5383L8.86523 7.49164L12.7271 11.3536C12.9618 10.543 13.435 9.88451 14.1549 9.36328V9.36594ZM12.2619 9.63922L11.9873 9.86318L11.718 9.63389C9.59043 7.82224 10.197 5.03745 11.6607 3.21514L11.982 2.81522L12.3139 3.20715C13.2524 4.31226 13.7616 5.79064 13.6443 7.06772C13.551 8.08886 13.0711 8.97935 12.2592 9.64055L12.2619 9.63922Z" fill="#845C33"/>
<path d="M5.02935 4.34353C4.83985 4.15403 4.53261 4.15403 4.34312 4.34353C4.15362 4.53303 4.15362 4.84026 4.34312 5.02976L18.9708 19.6574C19.1603 19.8469 19.4675 19.8469 19.657 19.6574C19.8465 19.4679 19.8465 19.1607 19.657 18.9712L5.02935 4.34353Z" fill="#845C33"/>
</svg>
