<svg width="24" height="24" viewBox="0 0 24 24" fill="none" xmlns="http://www.w3.org/2000/svg">
<path d="M16.4441 20.8224C16.4441 21.345 16.2053 21.5852 15.6814 21.5852C13.2262 21.5852 10.7724 21.5852 8.31723 21.5852C7.79336 21.5852 7.55449 21.3463 7.55449 20.8238C7.55449 18.4569 7.55449 16.0885 7.55449 13.7216V13.4895C8.46381 13.4583 9.33242 13.3334 10.1807 13.0742C10.5593 12.9589 10.9285 12.8204 11.2881 12.6616L10.3137 11.6872C9.5265 11.9817 8.70132 12.1513 7.8395 12.2029C7.75535 12.2083 7.67121 12.2029 7.55449 12.2029V12.0007C7.55449 11.3574 7.55449 10.7154 7.55449 10.0721C7.55449 9.72058 7.60335 9.38943 7.70514 9.07863L6.73881 8.1123C6.55423 8.47468 6.42123 8.86419 6.35201 9.28764C6.30723 9.55772 6.28822 9.83594 6.28687 10.1101C6.2828 13.6782 6.28415 17.2476 6.28415 20.8157C6.28415 21.8879 6.83246 22.58 7.87886 22.8297C7.89922 22.8338 7.9155 22.8487 7.9345 22.8582H16.0614C16.0804 22.8487 16.098 22.8338 16.117 22.8297C17.1444 22.5949 17.7117 21.8892 17.7117 20.8374C17.7117 20.2538 17.7117 19.6702 17.7117 19.0866L16.4414 17.8163C16.4414 18.8179 16.4414 19.8208 16.4414 20.8224H16.4441Z" fill="#573219"/>
<path d="M8.22088 4.76411C8.3851 4.84283 8.41224 4.9324 8.40003 5.08577C8.3566 5.62322 8.20323 6.11452 7.91551 6.5434L8.82347 7.45136C9.22249 6.91798 9.48986 6.31674 9.60658 5.63815C9.64322 5.42371 9.65951 5.2052 9.68801 4.97448H14.2957C14.3554 5.32192 14.3934 5.67343 14.4789 6.01138C14.6594 6.73205 15.0272 7.35364 15.547 7.88295C15.9678 8.31182 16.2555 8.81127 16.379 9.40165C16.3953 9.48308 16.4034 9.56587 16.4116 9.6283C15.8307 9.70566 15.262 9.75588 14.7042 9.86038C13.8017 10.03 12.9507 10.3435 12.1445 10.7683L13.0932 11.717C14.046 11.2732 15.0557 11.0181 16.1238 10.9516C16.2216 10.9448 16.3193 10.9516 16.4482 10.9516V11.1769C16.4482 12.4757 16.4482 13.7745 16.4482 15.0734L17.7185 16.3437C17.7185 14.2591 17.7185 12.1744 17.7158 10.0884C17.7158 9.82103 17.6941 9.55094 17.6507 9.28765C17.5027 8.38783 17.082 7.6278 16.4468 6.98041C15.9325 6.45518 15.6637 5.8173 15.6054 5.08577C15.5932 4.93376 15.619 4.84419 15.7845 4.76547C17.0969 4.14659 17.2557 2.33609 16.0655 1.50548C15.9813 1.44712 15.8904 1.39962 15.7954 1.35891C15.4493 1.20961 15.0734 1.14175 14.6961 1.14175H9.30528C8.93341 1.14175 8.56153 1.2069 8.21952 1.35348C8.12723 1.39284 8.04037 1.43762 7.95894 1.49327C6.75103 2.32387 6.90033 4.13437 8.22359 4.76411H8.22088ZM9.12613 2.4148C10.0911 2.4148 11.0574 2.4148 12.0224 2.4148C12.9874 2.4148 13.9252 2.4148 14.8766 2.4148C15.3068 2.4148 15.5959 2.6686 15.5986 3.0459C15.6013 3.4232 15.3122 3.6865 14.8861 3.6865C12.9629 3.6865 11.0384 3.6865 9.11527 3.6865C8.69182 3.6865 8.40138 3.42049 8.4041 3.04454C8.40817 2.6686 8.69725 2.4148 9.12748 2.4148H9.12613Z" fill="#573219"/>
<path d="M4.34381 4.34177L4.34285 4.34273C4.15363 4.53194 4.15363 4.83872 4.34285 5.02794L18.9713 19.6564C19.1605 19.8456 19.4673 19.8456 19.6565 19.6564L19.6575 19.6554C19.8467 19.4662 19.8467 19.1594 19.6575 18.9702L5.02902 4.34177C4.83981 4.15255 4.53303 4.15255 4.34381 4.34177Z" fill="#573219"/>
</svg>
