<svg width="163" height="42" viewBox="0 0 163 42" fill="none" xmlns="http://www.w3.org/2000/svg">
<path d="M18.5386 12.48L20.2186 12.84C21.0719 12.84 21.4986 12.2267 21.4986 11C21.4986 9.74667 20.6986 8.41333 19.0986 7C17.5253 5.58667 15.5253 4.88 13.0986 4.88C10.0586 4.88 7.67193 5.84 5.93859 7.76C4.20526 9.65333 3.33859 12.24 3.33859 15.52C3.33859 18.7733 4.29859 21.5867 6.21859 23.96C8.13859 26.3333 10.5919 27.52 13.5786 27.52C16.5653 27.52 19.2319 26.1067 21.5786 23.28C22.0853 22.64 22.4719 22.32 22.7386 22.32C23.0053 22.32 23.2053 22.4133 23.3386 22.6C23.4986 22.76 23.5786 23.0133 23.5786 23.36C23.5786 23.7067 23.2986 24.2667 22.7386 25.04C22.2053 25.7867 21.4719 26.56 20.5386 27.36C19.6319 28.1333 18.4319 28.8133 16.9386 29.4C15.4719 29.96 13.9386 30.24 12.3386 30.24C8.81859 30.24 5.88526 28.9867 3.53859 26.48C1.21859 23.9733 0.0585938 20.7467 0.0585938 16.8C0.0585938 12.8267 1.39193 9.4 4.05859 6.52C6.75193 3.61333 10.0986 2.16 14.0986 2.16C16.8986 2.16 19.1919 2.89333 20.9786 4.36C22.7919 5.8 23.6986 7.62667 23.6986 9.84C23.6986 11.6 23.1519 13.0667 22.0586 14.24C20.9919 15.3867 19.8586 15.96 18.6586 15.96C18.0186 15.96 17.5386 15.7867 17.2186 15.44C16.9253 15.0933 16.7786 14.6933 16.7786 14.24C16.7786 13.7867 16.9519 13.3867 17.2986 13.04C17.6719 12.6667 18.0853 12.48 18.5386 12.48Z" fill="#845C33"/>
<path d="M40.5886 24.64C40.7753 25.12 41.1619 25.7733 41.7486 26.6C42.3619 27.4 42.6686 28.0533 42.6686 28.56C42.6686 29.0667 42.5353 29.48 42.2686 29.8C42.0019 30.0933 41.6419 30.24 41.1886 30.24C40.0953 30.24 39.1219 29.1067 38.2686 26.84L37.9486 25.96C36.5886 28.8133 34.5486 30.24 31.8286 30.24C30.4686 30.24 29.3353 29.8133 28.4286 28.96C27.5486 28.08 27.1086 26.9867 27.1086 25.68C27.1086 23.6533 27.8019 21.9067 29.1886 20.44C30.5753 18.9733 32.3886 18.1867 34.6286 18.08C34.0953 17.1467 33.4953 16.4533 32.8286 16C32.1886 15.52 31.6019 15.24 31.0686 15.16C30.5353 15.08 30.0286 15.04 29.5486 15.04C29.0953 15.0133 28.7353 14.9067 28.4686 14.72C28.2019 14.5333 28.0686 14.1733 28.0686 13.64C28.0686 13.08 28.2819 12.6267 28.7086 12.28C29.1619 11.9333 29.6953 11.76 30.3086 11.76C32.0419 11.76 33.7486 12.6267 35.4286 14.36C37.1086 16.0933 38.5753 18.8133 39.8286 22.52L40.5886 24.64ZM33.6286 20.2C32.6686 20.2 31.8019 20.52 31.0286 21.16C30.2819 21.8 29.9086 22.6267 29.9086 23.64C29.9086 24.6533 30.2419 25.5067 30.9086 26.2C31.6019 26.8667 32.4286 27.2 33.3886 27.2C34.3486 27.2 35.1753 26.8667 35.8686 26.2C36.5619 25.5067 36.9086 24.6933 36.9086 23.76C36.9086 23.0933 36.7886 22.48 36.5486 21.92C36.3086 21.3333 36.1619 20.9733 36.1086 20.84C35.4153 20.4133 34.5886 20.2 33.6286 20.2Z" fill="#845C33"/>
<path d="M46.068 36.92C46.3346 35.88 46.588 34.3467 46.828 32.32C47.0946 30.2933 47.228 27.9733 47.228 25.36C47.228 22.7467 47.108 19.16 46.868 14.6H45.628C44.588 14.6 44.068 14.1467 44.068 13.24C44.068 12.3333 44.588 11.88 45.628 11.88C46.1613 11.88 46.5613 11.8933 46.828 11.92C46.9346 8.58667 48.188 5.77333 50.588 3.48C53.0146 1.16 55.4413 0 57.868 0C58.828 0 59.6146 0.173333 60.228 0.52C60.868 0.866667 61.188 1.37333 61.188 2.04C61.188 2.68 61.0013 3.18667 60.628 3.56C60.2813 3.90667 59.9346 4.08 59.588 4.08C59.2413 4.08 58.6413 3.93334 57.788 3.64C56.9346 3.32 56.0946 3.16 55.268 3.16C53.6146 3.16 52.2013 3.89333 51.028 5.36C49.8546 6.8 49.268 8.53333 49.268 10.56V12.08H50.548L56.068 11.76C57.108 11.76 57.628 12.2533 57.628 13.24C57.628 14.2267 57.108 14.72 56.068 14.72L50.548 14.4C49.9613 14.4 49.5346 14.4133 49.268 14.44C49.3213 17.3733 49.4413 20.6667 49.628 24.32C49.8413 27.9733 49.948 31.5733 49.948 35.12C49.948 39.44 49.108 41.6 47.428 41.6C46.2546 41.6 45.668 40.84 45.668 39.32C45.668 38.7867 45.8013 37.9867 46.068 36.92Z" fill="#845C33"/>
<path d="M60.4039 36.92C60.6706 35.88 60.9239 34.3467 61.1639 32.32C61.4306 30.2933 61.5639 27.9733 61.5639 25.36C61.5639 22.7467 61.4439 19.16 61.2039 14.6H59.9639C58.9239 14.6 58.4039 14.1467 58.4039 13.24C58.4039 12.3333 58.9239 11.88 59.9639 11.88C60.4972 11.88 60.8972 11.8933 61.1639 11.92C61.2706 8.58667 62.5239 5.77333 64.9239 3.48C67.3506 1.16 69.7772 0 72.2039 0C73.1639 0 73.9506 0.173333 74.5639 0.52C75.2039 0.866667 75.5239 1.37333 75.5239 2.04C75.5239 2.68 75.3372 3.18667 74.9639 3.56C74.6172 3.90667 74.2706 4.08 73.9239 4.08C73.5772 4.08 72.9772 3.93334 72.1239 3.64C71.2706 3.32 70.4306 3.16 69.6039 3.16C67.9506 3.16 66.5372 3.89333 65.3639 5.36C64.1906 6.8 63.6039 8.53333 63.6039 10.56V12.08H64.8839L70.4039 11.76C71.4439 11.76 71.9639 12.2533 71.9639 13.24C71.9639 14.2267 71.4439 14.72 70.4039 14.72L64.8839 14.4C64.2972 14.4 63.8706 14.4133 63.6039 14.44C63.6572 17.3733 63.7772 20.6667 63.9639 24.32C64.1772 27.9733 64.2839 31.5733 64.2839 35.12C64.2839 39.44 63.4439 41.6 61.7639 41.6C60.5906 41.6 60.0039 40.84 60.0039 39.32C60.0039 38.7867 60.1372 37.9867 60.4039 36.92Z" fill="#845C33"/>
<path d="M81.8598 22.04L77.0998 21.64C76.6465 21.64 76.2865 21.68 76.0198 21.76C76.1798 23.28 76.8198 24.5467 77.9398 25.56C79.0865 26.5733 80.4332 27.08 81.9798 27.08C83.4732 27.08 84.8198 26.5333 86.0198 25.44C86.4465 25.0667 86.7665 24.88 86.9798 24.88C87.1932 24.88 87.3798 24.96 87.5398 25.12C87.6998 25.28 87.7798 25.4533 87.7798 25.64C87.7798 26.4133 87.0198 27.3733 85.4998 28.52C84.0065 29.6667 82.2998 30.24 80.3798 30.24C78.4865 30.24 76.8332 29.4667 75.4198 27.92C74.0332 26.3733 73.3398 24.4533 73.3398 22.16C73.3398 19.2267 74.4465 16.76 76.6598 14.76C78.8732 12.76 81.3132 11.76 83.9798 11.76C85.0998 11.76 86.0065 11.96 86.6998 12.36C87.4198 12.7333 87.7798 13.2267 87.7798 13.84C87.7798 14.4267 87.5932 14.9067 87.2198 15.28C86.8732 15.6533 86.5265 15.84 86.1798 15.84C85.8332 15.84 85.2332 15.68 84.3798 15.36C83.5532 15.04 82.7532 14.88 81.9798 14.88C80.5398 14.88 79.2865 15.32 78.2198 16.2C77.1798 17.0533 76.4865 18.12 76.1398 19.4L81.6598 19.08C82.8865 19.08 83.4998 19.56 83.4998 20.52C83.4998 21.5333 82.9532 22.04 81.8598 22.04Z" fill="#845C33"/>
<path d="M94.7098 20.6L95.0298 27.84C95.0298 28.56 94.8432 29.1467 94.4698 29.6C94.1232 30.0267 93.6965 30.24 93.1898 30.24C92.6832 30.24 92.2698 30.04 91.9498 29.64C91.6298 29.2133 91.4698 28.64 91.4698 27.92C91.4698 27.2 91.5365 26.1733 91.6698 24.84C91.9365 22.1733 92.0698 19.92 92.0698 18.08C92.0698 17.28 91.8165 16.52 91.3098 15.8C90.8298 15.0533 90.5898 14.3867 90.5898 13.8C90.5898 13.2133 90.7898 12.7333 91.1898 12.36C91.5898 11.96 92.0432 11.76 92.5498 11.76C93.8832 11.76 94.5498 12.8133 94.5498 14.92V16.48C95.3498 15.04 96.3098 13.8933 97.4298 13.04C98.5498 12.1867 99.5765 11.76 100.51 11.76C101.443 11.76 102.15 12 102.63 12.48C103.137 12.9333 103.39 13.5467 103.39 14.32C103.39 15.0933 103.203 15.7467 102.83 16.28C102.457 16.7867 102.057 17.04 101.63 17.04C101.203 17.04 100.87 16.9333 100.63 16.72C100.417 16.48 100.257 16.24 100.15 16C100.043 15.7333 99.8432 15.4933 99.5498 15.28C99.2565 15.04 98.8832 14.92 98.4298 14.92C97.6565 14.92 96.8832 15.4267 96.1098 16.44C95.3365 17.4533 94.8698 18.84 94.7098 20.6Z" fill="#845C33"/>
<path d="M107.216 27.08C107.216 23.72 107.149 20.7733 107.016 18.24C106.882 15.7067 106.816 14.2133 106.816 13.76C106.816 13.3067 106.989 12.8667 107.336 12.44C107.709 11.9867 108.149 11.76 108.656 11.76C109.162 11.76 109.576 11.9733 109.896 12.4C110.216 12.8 110.376 13.4 110.376 14.2C110.376 14.9733 110.282 16.2933 110.096 18.16C109.909 20 109.816 21.92 109.816 23.92C109.816 24.72 109.976 25.4933 110.296 26.24C110.642 26.96 110.816 27.6267 110.816 28.24C110.816 28.8267 110.642 29.3067 110.296 29.68C109.976 30.0533 109.522 30.24 108.936 30.24C108.376 30.24 107.949 29.92 107.656 29.28C107.362 28.64 107.216 27.9067 107.216 27.08ZM108.496 7.24C107.909 7.24 107.442 7.08 107.096 6.76C106.749 6.44 106.576 5.97333 106.576 5.36C106.576 4.74667 106.789 4.22667 107.216 3.8C107.642 3.34667 108.149 3.12 108.736 3.12C109.322 3.12 109.789 3.29333 110.136 3.64C110.509 3.96 110.696 4.42667 110.696 5.04C110.696 5.65334 110.469 6.17333 110.016 6.6C109.589 7.02667 109.082 7.24 108.496 7.24Z" fill="#845C33"/>
<path d="M127.784 23.16L127.384 14.16C127.384 13.44 127.558 12.8667 127.904 12.44C128.278 11.9867 128.718 11.76 129.224 11.76C129.731 11.76 130.144 11.9733 130.464 12.4C130.784 12.8 130.944 13.36 130.944 14.08C130.944 14.7733 130.864 15.76 130.704 17.04C130.384 19.6 130.224 21.8933 130.224 23.92C130.224 24.72 130.478 25.4933 130.984 26.24C131.518 26.96 131.784 27.6133 131.784 28.2C131.784 28.7867 131.584 29.28 131.184 29.68C130.784 30.0533 130.331 30.24 129.824 30.24C128.491 30.24 127.824 29.1867 127.824 27.08C126.571 29.1867 124.998 30.24 123.104 30.24C121.584 30.24 120.371 29.6933 119.464 28.6C118.584 27.5067 117.971 26.1733 117.624 24.6L116.104 17.72C115.944 16.9467 115.584 16.2667 115.024 15.68C114.491 15.0667 114.224 14.4533 114.224 13.84C114.224 13.2267 114.438 12.7333 114.864 12.36C115.291 11.96 115.798 11.76 116.384 11.76C117.718 11.76 118.584 12.8133 118.984 14.92L120.504 23.28C121.011 25.9467 122.278 27.28 124.304 27.28C125.291 27.28 126.104 26.8933 126.744 26.12C127.384 25.32 127.731 24.3333 127.784 23.16Z" fill="#845C33"/>
<path d="M136.465 20.4L136.185 13.72C136.185 13.16 136.358 12.6933 136.705 12.32C137.078 11.9467 137.518 11.76 138.025 11.76C138.532 11.76 138.945 11.9467 139.265 12.32C139.585 12.6667 139.745 13.1067 139.745 13.64C139.745 14.1733 139.732 14.5733 139.705 14.84C141.252 12.7867 142.892 11.76 144.625 11.76C146.652 11.76 148.105 12.9733 148.985 15.4C150.692 12.9733 152.532 11.76 154.505 11.76C157.038 11.76 158.678 13.64 159.425 17.4L160.825 24.28C160.958 24.92 161.278 25.6 161.785 26.32C162.292 27.0133 162.545 27.68 162.545 28.32C162.545 28.9333 162.345 29.4133 161.945 29.76C161.572 30.08 161.118 30.24 160.585 30.24C159.358 30.24 158.558 29.1867 158.185 27.08L156.705 18.72C156.518 17.5467 156.132 16.5867 155.545 15.84C154.958 15.0933 154.198 14.72 153.265 14.72C152.012 14.72 150.812 15.8 149.665 17.96L150.945 24.28C151.078 24.92 151.398 25.6 151.905 26.32C152.412 27.0133 152.665 27.68 152.665 28.32C152.665 28.9333 152.465 29.4133 152.065 29.76C151.692 30.08 151.238 30.24 150.705 30.24C149.478 30.24 148.678 29.1867 148.305 27.08L146.825 18.72C146.638 17.6267 146.185 16.6933 145.465 15.92C144.745 15.12 143.878 14.72 142.865 14.72C141.878 14.72 141.078 15.1067 140.465 15.88C139.878 16.6533 139.558 17.4267 139.505 18.2C139.478 18.9467 139.465 19.68 139.465 20.4L139.745 28.32C139.745 28.88 139.585 29.3467 139.265 29.72C138.945 30.0667 138.532 30.24 138.025 30.24C137.518 30.24 137.078 30.0667 136.705 29.72C136.358 29.3467 136.185 28.88 136.185 28.32L136.465 20.4Z" fill="#845C33"/>
</svg>
